<svg width="521" height="320" viewBox="0 0 521 320" fill="none" xmlns="http://www.w3.org/2000/svg">
<path opacity="0.1" d="M520.092 79.2993C520.056 79.9673 520.007 80.6442 519.944 81.2897C519.415 87.0952 518.001 92.7855 515.753 98.163C508.207 116.094 493.148 129.736 477.058 140.692L476.041 141.377C473.131 143.336 470.171 145.228 467.193 147.08L466.955 147.228L466.776 147.34L466.235 147.671C465.809 147.94 465.379 148.2 464.954 148.465L464.242 148.913L460.973 150.903L458.093 152.638C456.275 153.735 454.456 154.833 452.635 155.933C446.562 159.591 440.521 163.303 434.678 167.306L433.782 167.934C433.334 168.225 432.936 168.521 432.519 168.83C430.325 170.372 428.167 171.967 426.044 173.613C425.627 173.932 425.211 174.259 424.799 174.595C420.585 177.975 416.519 181.821 413.465 186.197C410.872 189.922 409.018 194.028 408.463 198.565C407.567 205.737 410.03 212.654 413.465 219.41C415.677 223.754 418.301 228.035 420.706 232.294C421.49 233.688 422.251 235.077 422.945 236.467C424.239 238.917 425.357 241.456 426.29 244.066C428.207 249.629 428.767 255.205 426.563 260.89C424.15 267.125 419.264 271.119 413.443 274.338C410.308 276.064 406.936 277.561 403.515 279.067C398.625 281.21 393.663 283.371 389.333 286.191C389.058 286.364 388.789 286.543 388.527 286.729C387.962 287.108 387.41 287.504 386.87 287.916C385.974 288.598 385.114 289.324 384.281 290.077C383.789 290.528 383.305 290.992 382.831 291.467C382.454 291.834 382.078 292.216 381.711 292.606C381.004 293.345 380.314 294.107 379.638 294.878L379.105 295.497C378.609 296.095 378.117 296.683 377.627 297.263C376.991 298.034 376.369 298.814 375.746 299.599C374.851 300.719 373.955 301.84 373.086 302.961C372.827 303.284 372.571 303.602 372.321 303.925C370.861 305.718 369.396 307.511 367.843 309.17L367.659 309.367C363.978 313.312 359.907 316.647 354.775 318.431C342.403 322.735 330.146 316.315 318.257 309.465L317.925 309.268L317.778 309.183L316.757 308.591L316.278 308.313C315.064 307.605 313.85 306.897 312.641 306.206L312.35 306.036C310.644 305.063 308.951 304.117 307.268 303.225C306.253 302.687 305.227 302.173 304.191 301.683C300.768 300.039 297.241 298.623 293.632 297.442C288.92 295.889 284.088 294.724 279.186 293.959C277.192 293.64 275.187 293.39 273.172 293.211C271.873 293.094 270.565 293 269.258 292.937C258.654 292.396 248.036 293.688 237.871 296.757C236.487 297.178 235.108 297.653 233.747 298.128C233.492 298.214 233.241 298.308 232.995 298.397C231.732 298.846 230.482 299.352 229.246 299.877L228.799 300.06C228.778 300.076 228.755 300.088 228.731 300.096C222.355 302.84 216.193 306.341 209.838 309.084C209.274 309.326 208.71 309.564 208.137 309.797C204.184 311.468 200.033 312.622 195.786 313.231C191.404 313.751 186.971 313.64 182.621 312.899C178.697 312.241 174.82 311.331 171.014 310.174H170.973L170.731 310.097C170.378 309.994 170.019 309.891 169.666 309.779L169.191 309.64L168.569 309.447C159.612 306.704 150.634 303.449 141.4 302.557C140.952 302.517 140.505 302.477 140.057 302.445C137.195 302.251 134.322 302.272 131.463 302.508C122.883 303.172 114.348 305.494 105.858 307.937L105.329 308.085C104.882 308.219 104.407 308.349 103.946 308.488L102.947 308.775L101.008 309.331L100.56 309.456C86.5617 313.491 72.7066 316.938 59.0261 312.944C53.03 311.191 47.6474 308.134 42.717 304.337C39.1877 301.581 35.8705 298.563 32.7936 295.309C29.9053 292.301 27.1512 289.149 24.4823 286.007C15.5889 275.535 6.80292 264.422 2.92939 251.238C1.61392 246.57 0.801741 241.774 0.506757 236.933C0.300766 233.993 0.229116 231.034 0.233595 228.071C0.233595 226.101 0.261956 224.136 0.318678 222.176C0.350024 220.746 0.399283 219.32 0.439586 217.895C0.439586 217.671 0.439586 217.446 0.439586 217.209C0.466454 216.545 0.484366 215.864 0.502279 215.219C0.887392 202.843 1.26952 190.466 1.64866 178.087C1.90391 169.839 2.17708 161.461 4.72062 153.611C5.01169 152.715 5.33859 151.818 5.6834 150.921C5.94761 150.249 6.22973 149.577 6.51632 148.931C12.1766 136.195 23.0852 125.728 32.7757 115.023C36.3298 111.185 39.6439 107.13 42.6991 102.883C47.3249 96.2668 50.67 89.2467 51.4089 81.3166C51.4716 80.6576 51.5164 79.9986 51.5388 79.3262C51.5612 78.6538 51.5657 77.9814 51.5388 77.2686C51.3015 65.7836 45.1934 54.7693 42.6857 43.7192C41.5572 38.788 41.1497 33.8211 42.3185 28.8138C42.4259 28.3341 42.5513 27.8679 42.6857 27.4062C47.0518 12.5053 64.0729 4.68721 79.6073 2.15441C95.7283 -0.46804 112.149 0.289557 128.248 2.60269C129.311 2.75511 130.371 2.91948 131.427 3.09581C134.759 3.63823 138.064 4.27927 141.355 4.96962C149.34 6.64172 157.248 8.60968 165.268 10.2369C175.545 12.3259 184.846 10.3311 195.097 8.8921C200.336 8.15691 205.599 7.64587 210.886 7.35897C215.287 7.1169 219.692 7.03023 224.101 7.09897C241.857 7.35304 259.484 10.1549 276.445 15.4191C287.842 18.974 299.064 23.6675 310.649 26.2272C314.608 27.1291 318.633 27.7122 322.686 27.971C323.004 27.9979 323.326 28.0158 323.648 28.0293C351.072 29.2486 376.275 12.8504 403.501 9.77521L404.419 9.67659C407.413 9.36675 410.42 9.21711 413.429 9.22831C438.811 9.34038 463.422 20.2695 486.735 31.0507C493.837 34.3321 501.065 37.7077 506.837 42.9885C516.761 52.0662 520.862 65.7388 520.092 79.2993Z" fill="#0091EE"/>
</svg>
