<svg width="1910" height="1250" viewBox="0 0 1910 1250" fill="none" xmlns="http://www.w3.org/2000/svg">
<path opacity="0.1" d="M1909.19 309.112C1909.06 311.724 1908.89 314.372 1908.67 316.897C1906.82 339.607 1901.89 361.866 1894.04 382.901C1867.71 453.043 1815.16 506.404 1759.01 549.261L1755.46 551.944C1745.3 559.607 1734.97 567.007 1724.58 574.249L1723.75 574.828L1723.13 575.266L1721.24 576.564C1719.75 577.616 1718.25 578.633 1716.77 579.668L1714.28 581.421L1702.87 589.207L1692.82 595.993C1686.48 600.284 1680.13 604.58 1673.77 608.882C1652.58 623.191 1631.5 637.71 1611.11 653.37L1607.98 655.825C1606.42 656.964 1605.03 658.122 1603.58 659.332C1595.92 665.364 1588.39 671.601 1580.98 678.042C1579.53 679.287 1578.07 680.567 1576.63 681.882C1561.93 695.104 1547.74 710.15 1537.08 727.264C1528.03 741.836 1521.56 757.899 1519.63 775.645C1516.5 803.702 1525.09 830.759 1537.08 857.185C1544.8 874.177 1553.96 890.924 1562.35 907.582C1565.09 913.036 1567.74 918.472 1570.16 923.908C1574.68 933.492 1578.58 943.425 1581.84 953.631C1588.53 975.393 1590.48 997.207 1582.79 1019.44C1574.37 1043.83 1557.32 1059.46 1537 1072.05C1526.06 1078.8 1514.3 1084.66 1502.36 1090.55C1485.29 1098.93 1467.98 1107.38 1452.86 1118.41C1451.91 1119.09 1450.97 1119.79 1450.05 1120.52C1448.08 1122 1446.16 1123.55 1444.27 1125.16C1441.14 1127.83 1438.14 1130.67 1435.24 1133.62C1433.52 1135.38 1431.83 1137.19 1430.17 1139.05C1428.86 1140.49 1427.55 1141.98 1426.27 1143.51C1423.8 1146.4 1421.39 1149.38 1419.03 1152.4L1417.17 1154.82C1415.44 1157.15 1413.72 1159.46 1412.01 1161.73C1409.8 1164.74 1407.62 1167.79 1405.45 1170.86C1402.33 1175.25 1399.2 1179.63 1396.17 1184.01C1395.26 1185.28 1394.37 1186.52 1393.5 1187.78C1388.4 1194.8 1383.29 1201.81 1377.87 1208.3L1377.23 1209.07C1364.38 1224.5 1350.18 1237.55 1332.27 1244.53C1289.09 1261.36 1246.32 1236.25 1204.83 1209.46L1203.67 1208.69L1203.15 1208.35L1199.59 1206.04L1197.92 1204.95C1193.68 1202.18 1189.45 1199.41 1185.23 1196.71L1184.21 1196.04C1178.26 1192.24 1172.35 1188.54 1166.48 1185.05C1162.93 1182.94 1159.36 1180.93 1155.74 1179.02C1143.79 1172.59 1131.48 1167.04 1118.89 1162.43C1102.44 1156.35 1085.58 1151.79 1068.48 1148.8C1061.52 1147.55 1054.52 1146.57 1047.49 1145.87C1042.96 1145.42 1038.39 1145.05 1033.83 1144.8C996.825 1142.69 959.771 1147.74 924.297 1159.74C919.468 1161.39 914.655 1163.25 909.904 1165.11C909.013 1165.44 908.138 1165.81 907.278 1166.16C902.871 1167.92 898.511 1169.9 894.198 1171.95L892.635 1172.67C892.564 1172.73 892.485 1172.77 892.401 1172.81C870.147 1183.54 848.644 1197.23 826.469 1207.97C824.5 1208.91 822.531 1209.84 820.53 1210.75C806.738 1217.29 792.251 1221.81 777.43 1224.19C762.138 1226.22 746.666 1225.79 731.485 1222.89C717.793 1220.31 704.263 1216.75 690.979 1212.23H690.838L689.994 1211.93C688.76 1211.53 687.509 1211.12 686.275 1210.68L684.618 1210.14L682.446 1209.39C651.191 1198.66 619.858 1185.92 587.634 1182.43C586.071 1182.28 584.509 1182.12 582.946 1182C572.958 1181.24 562.934 1181.32 552.957 1182.24C523.015 1184.84 493.229 1193.92 463.599 1203.48L461.755 1204.06C460.192 1204.58 458.536 1205.09 456.926 1205.63L453.441 1206.76L446.674 1208.93L445.112 1209.42C396.26 1225.2 347.909 1238.69 300.167 1223.06C279.242 1216.21 260.458 1204.25 243.252 1189.4C230.935 1178.62 219.359 1166.81 208.621 1154.08C198.542 1142.31 188.931 1129.99 179.617 1117.69C148.581 1076.73 117.92 1033.26 104.402 981.688C99.8111 963.428 96.9768 944.669 95.9474 925.732C95.2285 914.228 94.9785 902.655 94.9941 891.064C94.9941 883.36 95.0931 875.674 95.291 868.005C95.4004 862.411 95.5723 856.835 95.713 851.258C95.713 850.382 95.713 849.505 95.713 848.575C95.8067 845.98 95.8693 843.315 95.9318 840.79C97.2757 792.38 -1.17123 775.686 0.151891 727.264C1.04266 694.999 101.776 630.503 110.653 599.798C111.669 596.291 112.809 592.784 114.013 589.277C114.935 586.647 115.919 584.017 116.919 581.491C136.673 531.673 174.741 490.727 208.559 448.852C220.962 433.838 232.527 417.979 243.189 401.366C259.333 375.484 271.006 348.023 273.585 317.003C273.803 314.425 273.96 311.847 274.038 309.217C274.116 306.586 274.132 303.956 274.038 301.168C273.21 256.242 251.894 213.157 243.142 169.932C239.204 150.643 237.782 131.213 241.861 111.626C242.236 109.75 242.674 107.926 243.142 106.12C258.379 47.8318 317.779 17.2498 371.991 7.34224C428.25 -2.91605 485.555 0.0474539 541.736 9.0958C545.445 9.69201 549.144 10.335 552.832 11.0247C564.459 13.1465 575.992 15.6541 587.478 18.3546C615.342 24.8953 642.94 32.5934 670.929 38.9588C706.794 47.1304 739.252 39.3271 775.023 33.6982C793.307 30.8224 811.675 28.8233 830.126 27.701C845.482 26.7541 860.854 26.4151 876.242 26.684C938.205 27.6778 999.722 38.6381 1058.91 59.23C1098.68 73.1357 1137.85 91.4954 1178.27 101.508C1192.09 105.036 1206.14 107.317 1220.28 108.329C1221.39 108.435 1222.52 108.505 1223.64 108.557C1319.34 113.327 1407.3 49.1821 1502.31 37.1527L1505.51 36.7669C1515.96 35.5549 1526.45 34.9695 1536.96 35.0133C1625.53 35.4517 1711.42 78.2034 1792.78 120.376C1817.56 133.212 1842.79 146.417 1862.93 167.074C1897.56 202.583 1911.87 256.067 1909.19 309.112Z" fill="#0091EE"/>
</svg>
